<svg width="56" height="56" viewBox="0 0 56 56" fill="none" xmlns="http://www.w3.org/2000/svg">
<path d="M27.8086 37.0783C31.6481 37.0783 34.7607 33.9658 34.7607 30.1262C34.7607 26.2866 31.6481 23.1741 27.8086 23.1741C23.969 23.1741 20.8564 26.2866 20.8564 30.1262C20.8564 33.9658 23.969 37.0783 27.8086 37.0783Z" stroke="#1758F2" stroke-width="3"/>
<path d="M22.6593 48.6651H32.9578C40.1903 48.6651 43.8077 48.6651 46.4055 46.9618C47.5267 46.2275 48.4922 45.2794 49.2466 44.1717C50.9823 41.6226 50.9823 38.07 50.9823 30.9696C50.9823 23.8691 50.9823 20.3166 49.2466 17.7675C48.4922 16.6597 47.5267 15.7116 46.4055 14.9773C44.737 13.8812 42.6467 13.4896 39.4464 13.3505C37.9193 13.3505 36.6053 12.215 36.3064 10.7435C36.0779 9.6656 35.4843 8.69964 34.6259 8.00887C33.7675 7.31809 32.697 6.94486 31.5951 6.95226H24.022C21.7324 6.95226 19.7603 8.53966 19.3107 10.7435C19.0118 12.215 17.6978 13.3505 16.1707 13.3505C12.9727 13.4896 10.8824 13.8835 9.21159 14.9773C8.09122 15.7119 7.12658 16.66 6.3728 17.7675C4.63477 20.3166 4.63477 23.8668 4.63477 30.9696C4.63477 38.0723 4.63477 41.6202 6.37048 44.1717C7.12131 45.2747 8.08534 46.2225 9.21159 46.9618C11.8094 48.6651 15.4268 48.6651 22.6593 48.6651Z" stroke="#1758F2" stroke-width="3"/>
<path d="M44.0301 23.1741H41.7128" stroke="#1758F2" stroke-width="3" stroke-linecap="round"/>
</svg>
