<svg width="88" height="121" viewBox="0 0 88 121" fill="none" xmlns="http://www.w3.org/2000/svg">
<g clip-path="url(#clip0_0_867)">
<path d="M81.2305 78.5489C81.2305 78.5489 87.807 67.0479 86.7292 59.5579C86.0538 54.8571 83.3713 51.9197 76.8029 49.0418C74.0296 47.8272 70.5634 46.4067 66.2673 45.1999C70.4349 39.9699 66.9697 35.1548 65.9519 33.948C67.5757 29.5294 65.0018 25.3029 64.802 24.9873C64.8019 24.9739 64.7973 24.9605 64.7949 24.9471C66.7643 19.7135 62.4824 15.3132 62.4824 15.3132C63.4727 9.18771 57.1405 6.68096 57.1405 6.68096C55.173 0.398078 46.6749 1.7471 46.6749 1.7471C41.5223 -1.32996 35.6725 1.95942 35.6725 1.95942C28.7514 1.02364 26.2735 7.33552 26.2735 7.33552C20.8658 8.21452 20.8942 17.2821 20.8942 17.2821C15.9277 19.4114 18.5236 30.1473 18.5236 30.1473C14.4165 36.3271 18.6443 42.7987 18.6443 42.7987L21.0915 44.9892C21.0918 45.0272 21.0922 45.0652 21.0903 45.101C18.0672 46.3016 13.6936 48.4588 10.8445 51.7173C8.48862 54.4121 5.36241 57.226 3.35922 60.5547C1.3451 63.9103 0.580272 66.0152 0.664749 70.6501C0.692396 72.1414 0.904621 73.0562 1.70807 74.9985C2.74954 77.5133 5.24285 81.7249 9.30713 83.9469C9.30713 83.9469 2.70746 83.415 4.64926 86.3081C6.36648 88.8656 11.5708 88.6951 16.8888 86.851C18.0155 87.9874 19.1767 88.9938 20.3054 89.8618C23.3826 92.2275 27.3241 94.7056 27.3241 94.7056C25.641 95.4864 24.6937 97.4544 24.6937 97.4544C22.9699 101.241 23.6247 103.306 24.9176 106.393C26.8101 110.912 30.3436 113.515 30.3436 113.515C30.3436 113.515 10.788 114.938 11.5872 119.007C12.0314 121.263 22.4059 118.765 26.074 118.365C31.3393 117.794 36.0478 116.996 36.7422 115.473C38.3017 112.048 34.8808 109.059 34.8808 109.059C31.9764 103.946 33.7156 101.776 35.4243 100.867C36.3521 100.373 37.4177 100.253 38.4458 100.429C44.7218 101.496 52.7134 98.6205 52.7134 98.6205C53.8058 100.846 54.4197 104.251 56.0725 105.21C60.0977 107.551 63.962 104.526 63.962 104.526C66.3531 102.703 75.5572 96.126 74.7098 97.3171C73.8647 98.5081 70.4524 112.345 73.2092 113.94C76.9959 116.131 79.758 111.017 80.3996 102.56C80.8346 96.8248 79.4182 90.8743 78.0767 89.9591C75.2744 88.0493 70.6882 93.7104 68.0611 95.8643C65.667 97.8282 59.9739 96.9299 66.5253 91.6973C68.8023 89.8776 70.5997 87.4789 71.7857 84.7528C72.0242 84.2049 72.2143 83.738 72.3609 83.3922C72.9536 81.9979 73.4043 80.7167 73.7395 79.5283C73.9694 80.1791 74.2683 80.8068 74.6451 81.3958C79.1102 88.3548 85.6613 88.015 87.2641 83.0353C88.8669 78.0556 81.2215 78.5512 81.2215 78.5512L81.2305 78.5489ZM13.4543 67.4398L13.198 75.2556C7.12679 67.773 14.4689 60.8065 14.4689 60.8065L13.4543 67.4398ZM74.0031 69.4226C73.4265 67.1091 72.6144 65.2004 72.4917 63.1197C72.4223 61.9463 72.209 60.6826 71.8993 59.3886C74.5253 60.4056 76.6334 61.5081 76.7588 62.4595C76.7588 62.4595 75.0861 65.5078 74.0031 69.4226Z" fill="#FF6034"/>
<path d="M24.8796 33.3781C25.7896 33.3694 26.5205 32.6245 26.5118 31.7144C26.5031 30.8044 25.7582 30.0735 24.8481 30.0822C23.9381 30.0909 23.2072 30.8358 23.2159 31.7459C23.2246 32.6559 23.9695 33.3868 24.8796 33.3781Z" fill="white"/>
<path d="M29.3494 33.3344C30.2595 33.3257 30.9903 32.5808 30.9816 31.6707C30.973 30.7607 30.228 30.0298 29.318 30.0385C28.4079 30.0472 27.6771 30.7921 27.6858 31.7022C27.6945 32.6122 28.4394 33.3431 29.3494 33.3344Z" fill="white"/>
<path d="M29.2452 37.5388L29.3053 34.6892L26.7146 33.8687L25.6015 35.3328L26.1816 38.2366L27.7611 38.548L29.2452 37.5388Z" fill="#040000"/>
<path d="M29.3526 32.4751C29.7922 32.4709 30.1452 32.1111 30.141 31.6715C30.1368 31.2319 29.777 30.8789 29.3374 30.8831C28.8978 30.8873 28.5448 31.247 28.549 31.6867C28.5532 32.1263 28.913 32.4793 29.3526 32.4751Z" fill="#1F2421"/>
<path d="M24.7781 32.5273C25.2178 32.5232 25.5707 32.1634 25.5666 31.7237C25.5624 31.2841 25.2026 30.9311 24.7629 30.9353C24.3233 30.9395 23.9703 31.2993 23.9745 31.7389C23.9787 32.1786 24.3385 32.5315 24.7781 32.5273Z" fill="#1F2421"/>
<path d="M28.6607 44.8528C28.417 44.8552 28.2626 44.8432 28.2335 44.8413C28.1127 44.8312 28.0244 44.7247 28.0345 44.6039C28.0445 44.483 28.1464 44.3882 28.2718 44.4026C28.3076 44.4067 31.595 44.6549 33.3893 42.169C33.4599 42.0699 33.5984 42.0485 33.6952 42.1191C33.7943 42.1897 33.8157 42.3282 33.7451 42.425C32.1825 44.5889 29.6624 44.8411 28.6607 44.8506L28.6607 44.8528Z" fill="white"/>
</g>
<defs>
<clipPath id="clip0_0_867">
<rect width="86.7187" height="119.239" fill="white" transform="translate(0 0.827423) rotate(-0.546693)"/>
</clipPath>
</defs>
</svg>
