<svg width="202" height="279" viewBox="0 0 202 279" fill="none" xmlns="http://www.w3.org/2000/svg">
<g clip-path="url(#clip0_0_1903)">
<path d="M187.487 183.019C187.487 183.019 203.061 156.348 200.717 138.859C199.248 127.883 193.065 120.974 177.83 114.117C171.366 111.208 163.266 107.798 153.208 104.878C152.75 43.9433 146.885 3.1846 90 9.49911C39.9493 15.0575 48.0488 100.763 48.0488 100.763C48.153 101.785 48.1842 102.761 48.153 103.694C41.0847 106.426 30.8496 111.359 24.1407 118.894C18.5934 125.125 11.2491 131.616 6.50913 139.334C1.73793 147.108 -0.0903418 151.999 0.00341547 162.808C0.0346679 166.286 0.508663 168.424 2.33693 172.971C4.7069 178.858 10.4209 188.734 19.8383 194.005C19.8383 194.005 4.47772 192.618 8.9364 199.407C12.8794 205.409 25.0053 205.128 37.4334 200.946C40.0326 203.621 42.7151 205.993 45.3246 208.042C52.4398 213.627 61.5655 219.493 61.5655 219.493C57.6277 221.276 55.3775 225.844 55.3775 225.844C51.2782 234.635 52.7575 239.464 55.7004 246.691C60.0081 257.271 68.1806 263.418 68.1806 263.418C68.1806 263.418 22.5989 266.302 24.3699 275.807C25.3543 281.079 49.575 275.484 58.1277 274.634C70.4047 273.419 81.3899 271.662 83.0411 268.127C86.7497 260.175 78.8481 253.13 78.8481 253.13C72.1965 241.143 76.2958 236.121 80.2961 234.041C82.4681 232.909 84.9527 232.654 87.3435 233.087C101.938 235.715 120.617 229.186 120.617 229.186C123.112 234.401 124.466 242.352 128.295 244.626C137.618 250.174 146.687 243.208 146.687 243.208C152.296 239.01 173.881 223.878 171.881 226.637C169.886 229.395 161.631 261.583 168.016 265.363C176.788 270.557 183.335 258.694 185.018 238.989C186.158 225.625 182.992 211.718 179.887 209.555C173.402 205.039 162.594 218.137 156.427 223.101C150.807 227.627 137.566 225.406 152.942 213.351C158.287 209.158 162.526 203.605 165.35 197.275C165.917 196.003 166.37 194.918 166.719 194.115C168.131 190.877 169.209 187.9 170.017 185.136C170.537 186.659 171.22 188.129 172.084 189.511C182.33 205.837 197.597 205.19 201.441 193.614C205.285 182.039 187.466 183.024 187.466 183.024L187.487 183.019ZM32.3757 140.168L29.8651 155.613L29.0942 173.831C15.1192 156.249 32.3757 140.168 32.3757 140.168ZM170.855 161.578C169.563 156.171 167.714 151.702 167.475 146.847C167.339 144.11 166.871 141.159 166.178 138.134C172.272 140.564 177.158 143.182 177.429 145.403C177.429 145.403 173.465 152.474 170.855 161.578Z" fill="#FF6034"/>
<path d="M57.2168 76.4549C59.3367 76.4549 61.0556 74.7342 61.0556 72.612C61.0556 70.4898 59.3367 68.769 57.2168 68.769C55.0968 68.769 53.3779 70.4898 53.3779 72.612C53.3779 74.7342 55.0968 76.4549 57.2168 76.4549Z" fill="white"/>
<path d="M67.6509 76.4549C69.7708 76.4549 71.4897 74.7342 71.4897 72.612C71.4897 70.4898 69.7708 68.769 67.6509 68.769C65.5309 68.769 63.812 70.4898 63.812 72.612C63.812 74.7342 65.5309 76.4549 67.6509 76.4549Z" fill="white"/>
<path d="M67.2931 86.2576L67.4963 79.6146L61.4802 77.6436L58.855 81.0328L60.1415 87.8166L63.8137 88.5779L67.2931 86.2576Z" fill="#040000"/>
<path d="M67.6712 74.4682C68.6953 74.4682 69.5255 73.6371 69.5255 72.6119C69.5255 71.5867 68.6953 70.7556 67.6712 70.7556C66.6471 70.7556 65.8169 71.5867 65.8169 72.6119C65.8169 73.6371 66.6471 74.4682 67.6712 74.4682Z" fill="#1F2421"/>
<path d="M57.0145 74.4682C58.0386 74.4682 58.8688 73.6371 58.8688 72.6119C58.8688 71.5867 58.0386 70.7556 57.0145 70.7556C55.9904 70.7556 55.1602 71.5867 55.1602 72.6119C55.1602 73.6371 55.9904 74.4682 57.0145 74.4682Z" fill="#1F2421"/>
<path d="M65.769 103.314C65.2012 103.314 64.8418 103.283 64.7741 103.278C64.4928 103.252 64.2897 103.002 64.3157 102.72C64.3418 102.438 64.5814 102.219 64.8731 102.256C64.9564 102.266 72.608 102.918 76.8427 97.1615C77.0094 96.9321 77.3324 96.8852 77.5563 97.052C77.7855 97.2189 77.8324 97.5421 77.6657 97.7664C73.9779 102.777 68.1025 103.309 65.769 103.309V103.314Z" fill="white"/>
<path d="M152.28 78.0149C152.28 78.0149 164.859 91.0715 153.202 105.15L152.28 78.0149Z" fill="#FF6034"/>
<path d="M39.8119 78.8066C39.8119 78.8066 30.9959 32.297 78.804 11.1287C89.18 6.53323 100.944 5.98163 112.118 7.95162C119.073 9.17659 126.458 11.6838 132.287 16.5694C132.287 16.5694 154.674 14.4741 166.914 48.8986C166.914 48.8986 173.944 64.4651 167.415 82.5066C160.406 101.866 86.6325 84.781 86.6325 84.781L39.8119 78.803V78.8066Z" fill="#321705"/>
<path d="M45.5496 66.8787C45.5496 66.8787 66.9277 59.7975 74.3197 42.7446C74.3197 42.7446 75.4503 47.2505 68.5127 56.4772C68.5127 56.4772 84.0588 66.0585 102.285 42.7446C102.285 42.7446 100.814 53.7873 85.472 59.9372C85.472 59.9372 112.893 61.2446 119.963 41.1328C119.963 41.1328 123.148 55.5388 141.792 57.6305L150.662 84.7375C150.662 84.7375 164.208 75.0524 169.975 87.5671C172.208 92.4133 171.943 98.1012 169.249 102.707C166.362 107.647 159.048 110.147 150.354 107.202C150.354 107.202 147.635 118.095 133.842 123.346C120.378 128.471 56.9095 137.816 46.8055 112.98C46.8055 112.98 40.5871 105.064 44.4727 91.8402C44.4727 91.8402 43.317 73.2364 45.5461 66.8823L45.5496 66.8787Z" fill="#FFAE6B"/>
<path d="M131.551 17.4653C131.465 17.4653 131.38 17.4546 131.297 17.4295C130.825 17.2898 130.553 16.7884 130.696 16.3156C130.718 16.2475 132.088 11.4873 130.328 8.70069C129.655 7.6369 128.617 7.01008 127.154 6.78085C126.667 6.70563 126.331 6.24716 126.41 5.75646C126.485 5.26933 126.939 4.93265 127.433 5.01145C129.408 5.31948 130.893 6.24 131.845 7.74793C134.042 11.233 132.482 16.5985 132.414 16.8242C132.299 17.211 131.941 17.4653 131.558 17.4653H131.551Z" fill="#321705"/>
<path d="M132.114 18.7201C132.067 18.7201 132.021 18.7165 131.974 18.7093C131.488 18.6341 131.151 18.1757 131.23 17.6849C131.266 17.4521 132.171 11.9362 135.652 9.74054C137.159 8.79137 138.898 8.60153 140.812 9.17462C141.284 9.31789 141.552 9.81576 141.413 10.2886C141.27 10.7614 140.772 11.03 140.3 10.8903C138.88 10.4641 137.674 10.5858 136.608 11.2556C133.806 13.0215 133.008 17.9142 133.001 17.9643C132.933 18.4049 132.55 18.7201 132.118 18.7201H132.114Z" fill="#321705"/>
<path d="M44.7788 79.3583C44.7788 79.3583 31.5262 73.8459 31.011 90.3866C30.4958 106.927 48.2208 103.997 48.2208 103.997L44.7788 79.3583Z" fill="#FFAE6B"/>
<path d="M64.9763 69.0803C64.6077 69.0803 64.2428 68.9406 63.9637 68.6576C63.4055 68.0953 63.4091 67.1891 63.9673 66.6303C64.182 66.4154 69.2948 61.4224 76.2789 63.55C77.0338 63.7792 77.4596 64.5815 77.2306 65.3373C77.0016 66.0931 76.2038 66.5229 75.4452 66.2901C70.0855 64.6568 66.0282 68.6182 65.9888 68.6576C65.7097 68.937 65.3448 69.0767 64.9798 69.0767L64.9763 69.0803Z" fill="#321705"/>
<path d="M122.82 65.8958C122.477 65.8958 122.133 65.774 121.861 65.5269C118.412 62.4036 113.915 64.5311 113.721 64.6207C113.013 64.9645 112.154 64.6708 111.811 63.9616C111.464 63.2524 111.754 62.4 112.458 62.049C112.716 61.92 118.874 58.9543 123.782 63.3993C124.369 63.9294 124.412 64.8356 123.883 65.423C123.6 65.7346 123.21 65.8958 122.82 65.8958Z" fill="#321705"/>
<path d="M90.4781 94.3605C90.0773 94.3605 89.6802 94.1921 89.3975 93.8662C88.8787 93.268 88.9431 92.3618 89.5407 91.846C89.8269 91.5989 92.4173 89.4319 95.09 89.7507C96.3208 89.8975 97.3763 90.5458 98.1491 91.624C98.6107 92.2687 98.4604 93.1641 97.8164 93.6226C97.1759 94.0811 96.2815 93.9342 95.8199 93.2895C95.4263 92.7379 95.0435 92.6269 94.7537 92.5946C93.6231 92.4585 92.0166 93.4901 91.4155 94.0094C91.1436 94.2458 90.8108 94.3605 90.4781 94.3605Z" fill="#321705"/>
<path d="M59.0277 109.006C64.2681 109.006 68.5163 104.753 68.5163 99.5067C68.5163 94.2606 64.2681 90.0078 59.0277 90.0078C53.7873 90.0078 49.5391 94.2606 49.5391 99.5067C49.5391 104.753 53.7873 109.006 59.0277 109.006Z" fill="#ED8D56"/>
<path d="M132.309 110.146C137.549 110.146 141.798 105.893 141.798 100.647C141.798 95.4012 137.549 91.1484 132.309 91.1484C127.069 91.1484 122.82 95.4012 122.82 100.647C122.82 105.893 127.069 110.146 132.309 110.146Z" fill="#ED8D56"/>
<path d="M75.4513 95.6818C81.081 95.6818 85.6448 90.1653 85.6448 83.3604C85.6448 76.5555 81.081 71.0391 75.4513 71.0391C69.8216 71.0391 65.2578 76.5555 65.2578 83.3604C65.2578 90.1653 69.8216 95.6818 75.4513 95.6818Z" fill="white"/>
<path d="M113.1 95.6818C118.729 95.6818 123.293 90.1653 123.293 83.3604C123.293 76.5555 118.729 71.0391 113.1 71.0391C107.47 71.0391 102.906 76.5555 102.906 83.3604C102.906 90.1653 107.47 95.6818 113.1 95.6818Z" fill="white"/>
<path d="M117.358 89.4616C120.377 89.4616 122.825 87.0112 122.825 83.9886C122.825 80.966 120.377 78.5156 117.358 78.5156C114.338 78.5156 111.891 80.966 111.891 83.9886C111.891 87.0112 114.338 89.4616 117.358 89.4616Z" fill="#030305"/>
<path d="M80.0608 89.4616C83.0802 89.4616 85.5279 87.0112 85.5279 83.9886C85.5279 80.966 83.0802 78.5156 80.0608 78.5156C77.0414 78.5156 74.5938 80.966 74.5938 83.9886C74.5938 87.0112 77.0414 89.4616 80.0608 89.4616Z" fill="#030305"/>
<path d="M95.2123 109.124C91.3196 109.124 87.6916 107.322 84.4178 103.769C83.8811 103.189 83.9204 102.279 84.5001 101.745C85.0797 101.208 85.9885 101.248 86.5216 101.828C89.2551 104.797 92.2033 106.287 95.3054 106.258C100.83 106.205 105.177 101.366 105.22 101.319C105.742 100.728 106.647 100.671 107.238 101.194C107.828 101.717 107.885 102.619 107.367 103.214C107.159 103.45 102.161 109.049 95.3555 109.124C95.309 109.124 95.2589 109.124 95.2123 109.124Z" fill="#321705"/>
</g>
<defs>
<clipPath id="clip0_0_1903">
<rect width="202" height="278.047" fill="white"/>
</clipPath>
</defs>
</svg>
