<svg width="113" height="109" viewBox="0 0 113 109" fill="none" xmlns="http://www.w3.org/2000/svg">
<g clip-path="url(#clip0_0_1690)">
<path d="M19.9167 47.6578C19.9167 47.6578 30.5191 51.6325 33.0754 44.6352C33.6842 42.9691 33.6342 41.1365 33.0517 39.4626C32.2927 37.2888 31.1437 32.9704 32.0107 28.517C32.8013 24.4551 32.4192 21.964 33.6262 19.1662C37.2605 10.7461 47.9841 4.10847 58.1016 4.00798C66.6958 3.92336 73.0683 5.27205 80.0602 18.6029C80.0602 18.6029 82.8564 26.8828 83.5574 31.9364C84.2189 36.7202 91.3557 35.115 94.3653 30.7596C94.8213 30.0984 95.3273 29.4743 95.8491 28.8635C96.9718 27.5465 98.7929 25.2247 100.14 22.6172C101.571 19.8484 102.741 15.9108 103.139 12.428C103.139 12.428 102.815 10.3336 100.54 9.31282C98.2658 8.2894 97.6254 5.90937 98.5662 5.35931C99.5071 4.80926 100.408 5.25618 102.422 7.50399C104.659 10.003 101.911 3.96832 101.911 3.96832C101.911 3.96832 101.189 1.6491 103.22 1.28945C105.761 0.839893 105.795 7.03327 105.795 7.03327C105.795 7.03327 106.815 2.31287 109.714 2.7069C109.714 2.7069 111.377 3.2067 109.914 4.81984C108.452 6.43562 107.988 8.31849 107.988 8.31849C107.988 8.31849 110.254 7.26599 112.157 7.31623C112.157 7.31623 113.169 7.3797 112.985 8.51683C112.8 9.65395 110.144 9.86287 108.154 10.6033C108.154 10.6033 106.989 22.8711 103.466 31.7063C100.619 38.849 98.6743 41.2978 96.7004 43.3949C95.9756 44.1645 95.1613 44.8467 94.3126 45.4761C92.9238 46.5048 90.7337 48.9377 92.734 53.2403C94.3469 56.7125 94.057 55.0412 96.5238 64.1805C97.968 69.5303 98.0313 73.7562 97.5068 77.6621C96.9824 81.568 97.093 84.8075 93.9358 91.9079L100.73 98.9C100.73 98.9 104.14 91.4716 106.575 92.4501C109.011 93.4285 105.99 99.3892 105.99 99.3892C105.99 99.3892 103.848 105.059 99.2699 103.885C99.2699 103.885 89.0839 97.4323 87.6239 97.4323C87.6239 97.4323 76.2915 103.446 65.4782 103.702C58.4179 103.869 50.0951 102.108 40.7472 100.201C40.7472 100.201 36.8283 106.741 23.5483 103.895C23.5483 103.895 22.5626 103.771 21.4531 102.967C21.4531 102.967 22.0698 107.635 18.2484 108.592C14.4297 109.552 17.695 100.061 17.695 100.061C17.695 100.061 18.1878 95.3008 21.2054 96.8452C24.223 98.3896 31.7551 96.3084 34.156 94.4546C34.156 94.4546 28.8218 89.0228 27.2247 79.8729C26.6133 76.3637 26.413 73.0819 25.9993 70.4876C25.3351 66.3146 25.1427 62.0729 21.6929 59.6453C21.6613 59.6241 21.6323 59.6029 21.6007 59.5818C19.719 58.2648 16.8754 57.5164 13.9237 55.3797C10.9034 53.1927 8.36814 50.2441 7.12157 46.6556L5.55875 42.7973C5.55875 42.7973 1.06532 45.8146 0.135006 43.9502C-0.795306 42.0859 3.38715 40.9461 3.38715 40.9461L5.08964 40.6341C5.08964 40.6341 -0.431615 38.9257 0.909827 37.2676C2.25127 35.6096 5.34792 37.6828 6.68936 38.6666C6.68936 38.6666 3.95377 33.2798 6.12274 32.9175C8.29171 32.5552 9.42495 37.7331 9.42495 37.7331C9.42495 37.7331 10.097 32.7086 12.0578 33.3829C14.0185 34.0572 11.5412 39.5974 11.5412 39.5974C11.5412 39.5974 11.5333 43.9635 19.914 47.6578H19.9167Z" fill="#FF6034"/>
<path d="M71.8197 18.3526C70.4756 18.6488 69.6244 19.9843 69.9196 21.333C70.2147 22.6816 71.5456 23.5358 72.8897 23.2396C74.2338 22.9434 75.085 21.608 74.7899 20.2593C74.4947 18.9106 73.1638 18.0564 71.8197 18.3526Z" fill="white"/>
<path d="M67.2532 25.642C68.5973 25.3458 69.4486 24.0103 69.1534 22.6616C68.8582 21.313 67.5273 20.4588 66.1832 20.755C64.8392 21.0511 63.9879 22.3866 64.2831 23.7353C64.5783 25.084 65.9092 25.9381 67.2532 25.642Z" fill="white"/>
<path d="M66.7361 24.4547C67.4013 24.4547 67.9405 23.9136 67.9405 23.2461C67.9405 22.5787 67.4013 22.0376 66.7361 22.0376C66.071 22.0376 65.5317 22.5787 65.5317 23.2461C65.5317 23.9136 66.071 24.4547 66.7361 24.4547Z" fill="#1F2421"/>
<path d="M72.3641 22.0523C73.0292 22.0523 73.5685 21.5112 73.5685 20.8438C73.5685 20.1763 73.0292 19.6353 72.3641 19.6353C71.6989 19.6353 71.1597 20.1763 71.1597 20.8438C71.1597 21.5112 71.6989 22.0523 72.3641 22.0523Z" fill="#1F2421"/>
<path d="M70.8309 31.7741L73.1923 33.4771L75.0107 31.6471L74.3334 26.5644L72.7364 25.1021L69.9375 26.4904L70.8309 31.7741Z" fill="#040000"/>
<path d="M76.668 39.2326C75.793 39.2326 75.034 38.9073 74.6202 38.2673C73.8401 37.0641 74.5781 35.1865 76.2621 34.0891C77.9462 32.989 79.9544 33.0789 80.7345 34.2848C81.5145 35.488 80.7766 37.3656 79.0926 38.463C78.3019 38.9787 77.4402 39.2326 76.668 39.2326ZM78.6999 33.8881C78.0384 33.8881 77.282 34.1182 76.5784 34.5756C75.1605 35.5012 74.5016 37.0139 75.1078 37.9527C75.7139 38.8862 77.3585 38.902 78.7816 37.9765C80.1995 37.0509 80.8583 35.5382 80.2522 34.5994C79.9465 34.1261 79.3746 33.8881 78.6999 33.8881Z" fill="white"/>
<path d="M38.1073 10.4934C38.2918 12.9264 40.9193 13.1591 42.8537 13.1697C44.9331 13.1802 47.3419 12.5403 48.1589 10.3797C48.7861 8.72163 47.8084 6.71447 45.9556 6.51085C43.958 6.28871 43.2042 8.46512 43.336 10.0862C43.481 11.8818 44.4376 13.9471 46.4379 14.1534C48.7598 14.3914 50.7363 12.3128 52.0382 10.6495C53.3402 8.98608 54.6473 6.14062 53.1609 4.16519C52.0356 2.66841 50.0063 2.89848 49.076 4.47195C47.9744 6.33631 49.1682 8.33554 50.8418 9.33251C52.8236 10.5119 55.351 10.6706 57.3698 9.50175C59.0749 8.51801 60.2582 6.61927 60.021 4.61475C59.8313 3.00955 58.366 0.616294 56.4368 1.01561C54.2151 1.47575 55.0374 5.5271 55.2904 6.99743C55.7068 9.42771 57.3908 10.5463 59.8075 10.4802C63.6632 10.3718 68.66 6.19086 66.3672 1.97291C65.5502 0.473492 63.0597 -0.380676 62.6907 1.88036C62.2796 4.38468 63.4076 7.0371 65.7716 8.07638C70.1675 10.0069 76.9485 5.23356 74.342 0.30689C73.9836 -0.370098 72.9611 0.2302 73.3168 0.907187C74.7004 3.52258 72.1651 6.32573 69.7722 7.09792C66.6808 8.09753 63.8398 6.13533 63.8213 2.86675C63.8213 2.72659 63.7739 1.99407 63.8819 1.86185C64.2825 1.37526 64.8017 1.883 65.0468 2.13687C65.5317 2.64461 65.6767 3.43531 65.6609 4.10966C65.6319 5.3843 65.0178 6.57431 64.1139 7.45228C62.5879 8.93583 58.3475 10.5913 56.8611 8.15042C56.1153 6.92867 56.168 4.89771 56.226 3.50407C56.2523 2.85353 56.1311 2.7451 56.7926 2.50974C57.3777 2.30347 57.4409 2.34314 57.8942 2.77419C58.3897 3.24491 58.7112 3.8981 58.8272 4.57244C59.3542 7.64797 55.8676 9.60225 53.2268 9.00195C51.9513 8.71105 50.3753 7.98647 49.9431 6.63514C49.7164 5.92906 49.8693 5.13042 50.4675 4.64384C51.5217 3.78967 52.4415 4.92151 52.5706 5.95286C52.8948 8.51536 50.0854 11.94 47.7715 12.7756C45.8081 13.487 44.6985 11.858 44.522 10.0915C44.4561 9.44622 44.4824 8.54445 44.9621 8.04464C45.671 7.30419 46.7647 7.92035 47.0757 8.72692C47.7952 10.6019 45.3996 11.7734 43.9474 11.9426C42.7088 12.0881 39.4276 12.2917 39.2932 10.5014C39.2353 9.7424 38.0493 9.73711 38.1073 10.5014V10.4934Z" fill="#015AAB"/>
</g>
<defs>
<clipPath id="clip0_0_1690">
<rect width="113" height="108.654" fill="white"/>
</clipPath>
</defs>
</svg>
