<svg width="220" height="194" viewBox="0 0 220 194" fill="none" xmlns="http://www.w3.org/2000/svg">
<g clip-path="url(#clip0_194_13758)">
<path d="M13.7432 114.897C13.7432 114.897 -0.00172138 42.4938 74.5354 9.54028C90.7125 2.38641 109.054 1.52773 126.475 4.59447C137.319 6.50142 148.833 10.4045 157.92 18.0101C157.92 18.0101 192.823 14.7482 211.906 68.338C211.906 68.338 222.868 92.5709 212.687 120.657C201.76 150.794 86.7407 124.197 86.7407 124.197L13.7432 114.891V114.897Z" fill="#321705"/>
<path d="M22.6923 96.329C22.6923 96.329 56.0226 85.3055 67.5474 58.7587C67.5474 58.7587 69.3101 65.7731 58.4938 80.1366C58.4938 80.1366 82.7315 95.0521 111.147 58.7587C111.147 58.7587 108.855 75.9491 84.9349 85.5229C84.9349 85.5229 127.687 87.5581 138.71 56.2495C138.71 56.2495 143.674 78.6757 172.743 81.9321L186.571 124.13C186.571 124.13 207.691 109.053 216.683 128.535C220.164 136.08 219.751 144.934 215.551 152.105C211.049 159.794 199.647 163.686 186.092 159.102C186.092 159.102 181.852 176.059 160.348 184.233C139.357 192.212 40.4034 206.76 24.6503 168.096C24.6503 168.096 14.9553 155.774 21.0133 135.187C21.0133 135.187 19.2115 106.226 22.6868 96.3346L22.6923 96.329Z" fill="#FFAE6B"/>
<path d="M156.765 19.4093C156.631 19.4093 156.498 19.3926 156.369 19.3536C155.633 19.1361 155.209 18.3555 155.432 17.6195C155.466 17.5135 157.602 10.1032 154.858 5.76514C153.809 4.1091 152.191 3.13332 149.91 2.77646C149.151 2.65936 148.627 1.94565 148.749 1.18175C148.866 0.423432 149.575 -0.100702 150.345 0.0219679C153.424 0.501495 155.739 1.9345 157.223 4.28195C160.648 9.70729 158.216 18.06 158.11 18.4113C157.931 19.0135 157.373 19.4093 156.776 19.4093H156.765Z" fill="#321705"/>
<path d="M157.646 21.3614C157.573 21.3614 157.501 21.3559 157.428 21.3447C156.669 21.2276 156.145 20.5139 156.268 19.75C156.324 19.3876 157.735 10.8007 163.163 7.38268C165.511 5.90507 168.222 5.60955 171.206 6.50169C171.943 6.72473 172.361 7.49978 172.144 8.23579C171.921 8.97181 171.145 9.39 170.409 9.17254C168.194 8.50901 166.314 8.69859 164.652 9.74128C160.284 12.4902 159.04 20.1069 159.029 20.1849C158.923 20.8708 158.326 21.3614 157.651 21.3614H157.646Z" fill="#321705"/>
<path d="M21.4834 115.761C21.4834 115.761 0.821429 107.18 0.0181551 132.929C-0.785119 158.679 26.8497 154.118 26.8497 154.118L21.4834 115.761Z" fill="#FFAE6B"/>
<path d="M52.9693 99.7585C52.3947 99.7585 51.8257 99.541 51.3906 99.1005C50.5204 98.2251 50.526 96.8144 51.3962 95.9446C51.7309 95.61 59.7023 87.8372 70.5911 91.1493C71.7681 91.5061 72.4319 92.7551 72.0749 93.9317C71.7179 95.1082 70.4739 95.7773 69.2913 95.4148C60.9351 92.8722 54.6093 99.0392 54.5479 99.1005C54.1128 99.5354 53.5438 99.7529 52.9748 99.7529L52.9693 99.7585Z" fill="#321705"/>
<path d="M143.16 94.8009C142.624 94.8009 142.089 94.6113 141.665 94.2266C136.287 89.3644 129.275 92.6765 128.974 92.8159C127.87 93.3512 126.531 92.8939 125.995 91.7899C125.454 90.6859 125.906 89.3588 127.005 88.8124C127.407 88.6117 137.007 83.9948 144.66 90.9145C145.575 91.7397 145.642 93.1504 144.816 94.0649C144.376 94.55 143.768 94.8009 143.16 94.8009Z" fill="#321705"/>
<path d="M92.7314 139.113C92.1066 139.113 91.4874 138.851 91.0467 138.343C90.2379 137.412 90.3383 136.001 91.2699 135.198C91.7161 134.814 95.7548 131.44 99.9218 131.936C101.841 132.165 103.486 133.174 104.691 134.853C105.411 135.856 105.177 137.25 104.172 137.964C103.174 138.678 101.779 138.449 101.06 137.445C100.446 136.587 99.8493 136.414 99.3974 136.364C97.6347 136.152 95.13 137.758 94.1929 138.566C93.7689 138.934 93.2502 139.113 92.7314 139.113Z" fill="#321705"/>
<path d="M43.6991 161.913C51.8694 161.913 58.4928 155.292 58.4928 147.126C58.4928 138.959 51.8694 132.338 43.6991 132.338C35.5289 132.338 28.9055 138.959 28.9055 147.126C28.9055 155.292 35.5289 161.913 43.6991 161.913Z" fill="#ED8D56"/>
<path d="M157.949 163.686C166.119 163.686 172.743 157.066 172.743 148.899C172.743 140.732 166.119 134.112 157.949 134.112C149.779 134.112 143.156 140.732 143.156 148.899C143.156 157.066 149.779 163.686 157.949 163.686Z" fill="#ED8D56"/>
<path d="M100.117 162.091C94.0482 162.091 88.3919 159.286 83.2877 153.755C82.451 152.852 82.5123 151.436 83.416 150.605C84.3197 149.768 85.7366 149.83 86.5678 150.733C90.8296 155.355 95.4261 157.675 100.262 157.63C108.875 157.547 115.653 150.014 115.72 149.941C116.534 149.021 117.946 148.932 118.866 149.746C119.786 150.56 119.876 151.965 119.067 152.891C118.743 153.259 110.95 161.974 100.341 162.091C100.268 162.091 100.19 162.091 100.117 162.091Z" fill="#321705"/>
<path d="M80.3418 116.28C81.0837 116.469 81.7531 116.949 82.1659 117.663C82.9915 119.079 82.5173 120.891 81.1005 121.722C80.5594 122.04 67.6679 129.405 54.7263 121.499C53.3261 120.64 52.8855 118.811 53.7389 117.412C54.598 116.012 56.4221 115.566 57.8278 116.425C67.6847 122.452 77.681 116.826 78.0993 116.587C78.8022 116.179 79.6055 116.096 80.3362 116.285L80.3418 116.28Z" fill="#321705"/>
<path d="M142.022 116.28C142.764 116.469 143.434 116.949 143.846 117.663C144.672 119.079 144.198 120.891 142.781 121.722C142.24 122.04 129.348 129.405 116.407 121.499C115.007 120.64 114.566 118.811 115.419 117.412C116.278 116.012 118.103 115.566 119.508 116.425C129.365 122.452 139.361 116.826 139.78 116.587C140.483 116.179 141.286 116.096 142.017 116.285L142.022 116.28Z" fill="#321705"/>
</g>
<defs>
<clipPath id="clip0_194_13758">
<rect width="219.026" height="193.656" fill="white"/>
</clipPath>
</defs>
</svg>
