<svg width="106" height="110" viewBox="0 0 106 110" fill="none" xmlns="http://www.w3.org/2000/svg">
<g clip-path="url(#clip0_194_13098)">
<path d="M41.5121 14.6596L41.4974 14.043C41.4863 13.5249 41.4753 13.0068 41.4643 12.4851H34.9366C35.069 14.853 34.9918 16.8743 34.7565 18.6001C34.5801 20.1215 34.264 21.6247 33.6796 23.0258C32.1065 26.7911 29.0412 28.5095 26.6154 28.5825C26.2809 28.6044 26.0861 28.5898 26.0824 28.5898C26.0824 28.5898 25.8913 28.6044 25.5642 28.5825C23.1347 28.5205 20.0547 26.802 18.4779 23.0258C17.8494 21.5189 17.5296 19.8953 17.3642 18.2608C17.1657 16.6299 17.1033 14.7472 17.2209 12.5617V12.4851L10.7814 12.5398C10.7704 13.0579 10.7631 13.5797 10.7484 14.0978L10.7337 14.7144C10.7116 15.6593 10.6822 16.6043 10.616 17.542C10.7043 20.2893 11.2593 23.0112 12.3398 25.5469C12.7625 26.5393 13.2881 27.5609 13.9313 28.5533C13.9387 28.5424 13.9497 28.5278 13.9607 28.5168C16.03 31.8844 19.6651 34.2669 23.5905 34.9018C24.1234 34.982 24.6747 35.0368 25.2518 35.0623C25.3363 35.0623 25.4208 35.0696 25.5054 35.0696C25.6928 35.0769 25.884 35.0805 26.0751 35.0805C26.2993 35.0805 26.5235 35.0769 26.7403 35.066C26.7697 35.066 26.7955 35.066 26.8249 35.066C27.5012 35.0368 28.148 34.9711 28.7655 34.8689C29.9748 34.65 31.1583 34.2706 32.2682 33.7452C34.0141 32.9206 35.5909 31.7421 36.8626 30.2937C37.3514 29.7391 37.7925 29.1407 38.1784 28.5132C38.1894 28.5278 38.2005 28.5424 38.2115 28.5569C38.8584 27.5645 39.384 26.5393 39.8066 25.5469C40.9901 22.774 41.5488 19.95 41.5488 16.9363V16.4365" fill="#F8F8F8"/>
<path d="M41.5472 17.5593C41.731 20.1935 42.2124 22.7402 43.6826 24.8381C43.7635 24.9549 43.8517 25.0716 43.9399 25.1847C45.6306 27.352 48.3909 28.6618 51.1291 28.6435L51.6878 28.6362V35.2474L51.1328 35.2438C46.1231 35.1963 41.1613 32.6059 38.2319 28.5706C38.8751 27.5782 39.4007 26.5566 39.8234 25.5642C40.904 23.0284 41.459 20.3103 41.5472 17.5593Z" fill="#FFD724"/>
<path d="M52.1837 44.5486V38.0104H-0.00062561V44.5486H22.5962V82.9788H2.00618V89.714H42.8848V109.438H49.8755V82.9788H29.5869V44.5486H52.1837Z" fill="#FFD724"/>
<path d="M13.9322 7.18763C15.9317 7.18763 17.5526 5.57863 17.5526 3.59382C17.5526 1.60901 15.9317 0 13.9322 0C11.9328 0 10.3119 1.60901 10.3119 3.59382C10.3119 5.57863 11.9328 7.18763 13.9322 7.18763Z" fill="#F8F8F8"/>
<path d="M38.2409 7.18763C40.2404 7.18763 41.8613 5.57863 41.8613 3.59382C41.8613 1.60901 40.2404 0 38.2409 0C36.2415 0 34.6206 1.60901 34.6206 3.59382C34.6206 5.57863 36.2415 7.18763 38.2409 7.18763Z" fill="#F8F8F8"/>
<path d="M56.126 100.275H96.3026V110.006H102.889V93.7368H56.126V100.275Z" fill="#FFD724"/>
<path d="M82.9918 83.862V74.9705H76.0047V83.862H53.4079V90.4002H105.592V83.862H82.9918Z" fill="#FFD724"/>
<path d="M67.3362 65.1314C69.7694 69.0864 74.3564 71.6915 79.0426 71.6951C79.1786 71.6951 79.3146 71.7061 79.4506 71.7024C79.5866 71.7061 79.7226 71.6951 79.8659 71.6951C81.8543 71.6951 83.8501 71.2135 85.6474 70.3634C87.3933 69.5388 88.9701 68.3603 90.2418 66.9119C90.7306 66.3573 91.1717 65.7589 91.5576 65.1314C94.4833 69.1849 99.4599 71.7936 104.488 71.8411H105.043V65.2335L104.484 65.2408C101.742 65.2591 98.9857 63.9493 97.295 61.782C97.2068 61.6689 97.1223 61.5522 97.0377 61.4354C95.0456 58.5932 94.9611 54.8717 94.8765 51.2742L94.8618 50.6576C94.8104 48.6144 94.781 46.5639 94.7589 44.5098V33.1555C94.7773 30.5286 94.803 27.9162 94.8324 25.3331C94.8765 21.1737 94.9206 16.8721 94.928 12.6434V12.0961H88.2166L88.3011 40.0951V52.7044C88.2239 55.0541 87.952 57.4731 87.0441 59.6476C85.4379 63.4968 82.266 65.2117 79.8181 65.2117C79.8034 65.2117 79.7851 65.2117 79.7704 65.2117C79.6601 65.2117 79.5535 65.2153 79.4469 65.2117C79.3366 65.2117 79.2301 65.2117 79.1235 65.2117C79.1088 65.2117 79.0904 65.2117 79.0757 65.2117C76.6278 65.2117 73.4559 63.4968 71.8497 59.6476C70.9419 57.4731 70.6699 55.0541 70.5927 52.7044V40.0951L70.6772 12.0961H63.9621V12.6434C63.9695 16.8757 64.0136 21.1737 64.0577 25.3331C64.0834 27.9162 64.1128 30.5286 64.1312 33.1555V44.5098C64.1128 46.5639 64.0798 48.6144 64.0283 50.6576L64.0136 51.2742C63.9327 54.8717 63.8482 58.5932 61.8524 61.4354C61.7716 61.5522 61.6833 61.6689 61.5951 61.782C59.9044 63.9493 57.1441 65.2591 54.4059 65.2408L53.8472 65.2335V71.8447L54.4022 71.8411C59.4266 71.7936 64.4032 69.1849 67.3325 65.1314H67.3362Z" fill="#FFD724"/>
<path d="M10.6276 17.5593C10.4439 20.1935 9.96237 22.7402 8.49218 24.8381C8.41132 24.9549 8.32311 25.0716 8.23489 25.1847C6.54418 27.352 3.7839 28.6618 1.04567 28.6435L0.487 28.6362V35.2474L1.042 35.2438C6.05166 35.1963 11.0136 32.6059 13.9429 28.5706C13.2997 27.5782 12.7741 26.5566 12.3514 25.5642C11.2708 23.0284 10.7158 20.3103 10.6276 17.5593Z" fill="#FFD724"/>
<path d="M10.616 17.5661C10.6822 16.6284 10.7116 15.6835 10.7337 14.7385L10.7484 14.1219C10.7594 13.6038 10.7704 13.0857 10.7814 12.5639L17.2209 12.5092" fill="white"/>
<path d="M17.2242 12.5092H17.2207V12.5822C17.2207 12.5579 17.2207 12.5335 17.2242 12.5092Z" fill="#FF5E17"/>
</g>
<defs>
<clipPath id="clip0_194_13098">
<rect width="105.6" height="110" fill="white"/>
</clipPath>
</defs>
</svg>
