<svg width="28" height="30" viewBox="0 0 28 30" fill="none" xmlns="http://www.w3.org/2000/svg">
<g clip-path="url(#clip0_0_1222)">
<path d="M11.0085 3.88456L11.0046 3.72106C11.0017 3.58369 10.9988 3.44632 10.9959 3.30798H9.26505C9.30013 3.93583 9.27967 4.47178 9.2173 4.92937C9.17052 5.33278 9.08671 5.73136 8.93175 6.10284C8.51464 7.10122 7.70186 7.55687 7.05865 7.57622C6.96997 7.58203 6.91832 7.57816 6.91734 7.57816C6.91734 7.57816 6.86666 7.58203 6.77993 7.57622C6.13575 7.55977 5.31907 7.10412 4.90098 6.10284C4.73433 5.7033 4.64955 5.2728 4.60569 4.8394C4.55307 4.40696 4.5365 3.90777 4.56769 3.32829V3.30798L2.86026 3.32249C2.85734 3.45986 2.85539 3.5982 2.85149 3.73557L2.84759 3.89907C2.84174 4.14963 2.83395 4.40019 2.81641 4.64882C2.8398 5.37728 2.98695 6.09897 3.27347 6.77133C3.38555 7.03447 3.52491 7.30534 3.69546 7.56848C3.69741 7.56558 3.70033 7.56171 3.70325 7.55881C4.25193 8.45173 5.21576 9.08346 6.25659 9.25179C6.3979 9.27307 6.54409 9.28758 6.69709 9.29435C6.71951 9.29435 6.74192 9.29629 6.76434 9.29629C6.81404 9.29822 6.86472 9.29919 6.91539 9.29919C6.97484 9.29919 7.03429 9.29822 7.09179 9.29532C7.09958 9.29532 7.10641 9.29532 7.1142 9.29532C7.29352 9.28758 7.46504 9.27017 7.62877 9.24308C7.9494 9.18504 8.2632 9.08442 8.55752 8.94512C9.02044 8.72648 9.43852 8.414 9.77572 8.02994C9.90533 7.88289 10.0223 7.72424 10.1246 7.55784C10.1275 7.56171 10.1305 7.56558 10.1334 7.56945C10.3049 7.30631 10.4443 7.03447 10.5563 6.77133C10.8701 6.03609 11.0183 5.28731 11.0183 4.48822V4.35569" fill="#007BEB"/>
<path d="M11.0181 4.65984C11.0668 5.35831 11.1945 6.03357 11.5843 6.58983C11.6057 6.62079 11.6291 6.65175 11.6525 6.68174C12.1008 7.25638 12.8327 7.60369 13.5588 7.59885L13.7069 7.59691V9.34987L13.5597 9.34891C12.2314 9.33633 10.9158 8.64946 10.139 7.5795C10.3096 7.31636 10.4489 7.04549 10.561 6.78235C10.8475 6.10999 10.9947 5.38927 11.0181 4.65984Z" fill="#FFD724"/>
<path d="M13.8368 11.8112V10.0775H0V11.8112H5.99158V22.001H0.532108V23.7868H11.3711V29.0167H13.2247V22.001H7.84518V11.8112H13.8368Z" fill="#FFD724"/>
<path d="M3.69444 1.90581C4.2246 1.90581 4.65437 1.47918 4.65437 0.952906C4.65437 0.426631 4.2246 0 3.69444 0C3.16428 0 2.7345 0.426631 2.7345 0.952906C2.7345 1.47918 3.16428 1.90581 3.69444 1.90581Z" fill="#007BEB"/>
<path d="M10.1362 1.90581C10.6664 1.90581 11.0961 1.47918 11.0961 0.952906C11.0961 0.426631 10.6664 0 10.1362 0C9.60605 0 9.17627 0.426631 9.17627 0.952906C9.17627 1.47918 9.60605 1.90581 10.1362 1.90581Z" fill="#007BEB"/>
<path d="M14.8805 26.5919H25.5334V29.172H27.2798V24.8583H14.8805V26.5919Z" fill="#FFD724"/>
<path d="M22.0078 22.2386V19.881H20.1551V22.2386H14.1636V23.9722H28.0003V22.2386H22.0078Z" fill="#FFD724"/>
<path d="M17.8529 17.2704C18.498 18.3191 19.7143 19.0098 20.9568 19.0108C20.9929 19.0108 21.029 19.0137 21.065 19.0127C21.1011 19.0137 21.1371 19.0108 21.1751 19.0108C21.7024 19.0108 22.2316 18.8831 22.7081 18.6576C23.171 18.439 23.5891 18.1265 23.9263 17.7425C24.0559 17.5954 24.1729 17.4368 24.2752 17.2704C25.0509 18.3452 26.3705 19.0369 27.7037 19.0495H27.8508V17.2975L27.7027 17.2994C26.9757 17.3042 26.2448 16.9569 25.7965 16.3823C25.7731 16.3523 25.7507 16.3213 25.7283 16.2904C25.2001 15.5368 25.1776 14.55 25.1552 13.5961L25.1513 13.4326C25.1377 12.8909 25.1299 12.3472 25.124 11.8025V8.79192C25.1289 8.09538 25.1357 7.40271 25.1435 6.71778C25.1552 5.61493 25.1669 4.47434 25.1689 3.35311V3.20799H23.3893L23.4117 10.632V13.9753C23.3913 14.5984 23.3192 15.2398 23.0784 15.8163C22.6526 16.837 21.8115 17.2917 21.1625 17.2917C21.1586 17.2917 21.1537 17.2917 21.1498 17.2917C21.1206 17.2917 21.0923 17.2926 21.064 17.2917C21.0348 17.2917 21.0065 17.2917 20.9783 17.2917C20.9744 17.2917 20.9695 17.2917 20.9656 17.2917C20.3165 17.2917 19.4755 16.837 19.0496 15.8163C18.8089 15.2398 18.7368 14.5984 18.7163 13.9753V10.632L18.7387 3.20799H16.9582V3.35311C16.9602 4.47531 16.9719 5.61493 16.9836 6.71778C16.9904 7.40271 16.9982 8.09538 17.0031 8.79192V11.8025C16.9982 12.3472 16.9894 12.8909 16.9758 13.4326L16.9719 13.5961C16.9504 14.55 16.928 15.5368 16.3988 16.2904C16.3774 16.3213 16.354 16.3523 16.3306 16.3823C15.8823 16.9569 15.1504 17.3042 14.4244 17.2994L14.2762 17.2975V19.0504L14.4234 19.0495C15.7556 19.0369 17.0752 18.3452 17.8519 17.2704H17.8529Z" fill="#FFD724"/>
<path d="M2.82198 4.65984C2.77325 5.35831 2.64559 6.03357 2.25576 6.58983C2.23432 6.62079 2.21093 6.65175 2.18754 6.68174C1.73925 7.25638 1.00736 7.60369 0.281311 7.59885L0.133179 7.59691V9.34987L0.280337 9.34891C1.60866 9.33633 2.92431 8.64946 3.70103 7.5795C3.53048 7.31636 3.39112 7.04549 3.27905 6.78235C2.99253 6.10999 2.84537 5.38927 2.82198 4.65984Z" fill="#FFD724"/>
<path d="M2.81641 4.65905C2.83395 4.41043 2.84174 4.15987 2.84759 3.90931L2.85149 3.74581C2.85441 3.60844 2.85734 3.47107 2.86026 3.33273L4.56769 3.31821" fill="#007BEB"/>
<path d="M4.56855 3.31821H4.56763V3.33756C4.56763 3.33111 4.56763 3.32466 4.56855 3.31821Z" fill="#FF5E17"/>
</g>
<defs>
<clipPath id="clip0_0_1222">
<rect width="28" height="29.1667" fill="white"/>
</clipPath>
</defs>
</svg>
