<svg width="37" height="37" viewBox="0 0 37 37" fill="none" xmlns="http://www.w3.org/2000/svg">
<path d="M18.1839 23.4844C21.5323 23.4844 24.2444 20.7723 24.2444 17.4239V9.0906C24.2444 5.74213 21.5323 3.03003 18.1839 3.03003C14.8354 3.03003 12.1233 5.74213 12.1233 9.0906V17.4239C12.1233 20.7723 14.8354 23.4844 18.1839 23.4844Z" stroke="white" stroke-width="2.27271" stroke-linecap="round" stroke-linejoin="round"/>
<path d="M6.59351 14.6216V17.1973C6.59351 23.5912 11.7904 28.7882 18.1843 28.7882C24.5782 28.7882 29.7752 23.5912 29.7752 17.1973V14.6216" stroke="white" stroke-width="2.27271" stroke-linecap="round" stroke-linejoin="round"/>
<path d="M16.0742 9.74243C17.4378 9.24243 18.9227 9.24243 20.2863 9.74243" stroke="white" stroke-width="2.27271" stroke-linecap="round" stroke-linejoin="round"/>
<path d="M16.9727 12.9547C17.7757 12.7426 18.609 12.7426 19.412 12.9547" stroke="white" stroke-width="2.27271" stroke-linecap="round" stroke-linejoin="round"/>
<path d="M18.1816 28.7878V33.3333" stroke="white" stroke-width="2.27271" stroke-linecap="round" stroke-linejoin="round"/>
</svg>
