<svg width="212" height="187" viewBox="0 0 212 187" fill="none" xmlns="http://www.w3.org/2000/svg">
<g clip-path="url(#clip0_0_1862)">
<path d="M13.3042 110.948C13.3042 110.948 0.000206947 41.0332 72.1463 9.21234C87.8044 2.30436 105.557 1.47519 122.42 4.43652C132.916 6.27793 144.06 10.0469 152.856 17.391C152.856 17.391 186.639 14.2412 205.111 65.9891C205.111 65.9891 215.72 89.389 205.867 116.509C195.289 145.611 83.9601 119.928 83.9601 119.928L13.3042 110.942V110.948Z" fill="#321705"/>
<path d="M21.9645 93.0181C21.9645 93.0181 54.2256 82.3734 65.3806 56.7391C65.3806 56.7391 67.0868 63.5124 56.6175 77.3822C56.6175 77.3822 80.0777 91.7851 107.582 56.7391C107.582 56.7391 105.363 73.3387 82.2104 82.5834C82.2104 82.5834 123.591 84.5487 134.26 54.3162C134.26 54.3162 139.066 75.9716 167.202 79.116L180.587 119.864C180.587 119.864 201.028 105.305 209.732 124.117C213.101 131.402 212.702 139.952 208.636 146.877C204.279 154.301 193.243 158.06 180.122 153.634C180.122 153.634 176.019 170.007 155.204 177.901C134.886 185.605 39.1074 199.653 23.8597 162.319C23.8597 162.319 14.4756 150.419 20.3393 130.541C20.3393 130.541 18.5953 102.575 21.9591 93.0235L21.9645 93.0181Z" fill="#FFAE6B"/>
<path d="M151.733 18.7426C151.603 18.7426 151.473 18.7264 151.349 18.6888C150.637 18.4788 150.226 17.725 150.442 17.0143C150.475 16.912 152.543 9.7563 149.886 5.56737C148.871 3.96825 147.305 3.02601 145.097 2.68141C144.363 2.56834 143.855 1.87916 143.974 1.14152C144.087 0.409265 144.773 -0.0968536 145.518 0.0215997C148.498 0.484644 150.739 1.86839 152.175 4.13516C155.491 9.37402 153.136 17.4396 153.034 17.7788C152.861 18.3603 152.321 18.7426 151.743 18.7426H151.733Z" fill="#321705"/>
<path d="M152.586 20.6271C152.516 20.6271 152.445 20.6217 152.375 20.6109C151.641 20.4979 151.133 19.8087 151.252 19.0711C151.306 18.7211 152.672 10.4294 157.926 7.12882C160.199 5.70199 162.823 5.41663 165.712 6.27811C166.424 6.49348 166.829 7.24189 166.619 7.9526C166.403 8.66332 165.652 9.06714 164.939 8.85716C162.796 8.21643 160.976 8.3995 159.367 9.40635C155.14 12.0608 153.936 19.4156 153.925 19.491C153.822 20.1533 153.244 20.6271 152.591 20.6271H152.586Z" fill="#321705"/>
<path d="M20.7928 111.782C20.7928 111.782 0.793645 103.496 0.0161392 128.36C-0.761367 153.225 25.987 148.82 25.987 148.82L20.7928 111.782Z" fill="#FFAE6B"/>
<path d="M51.2723 96.3294C50.7161 96.3294 50.1654 96.1194 49.7443 95.694C48.902 94.8487 48.9074 93.4865 49.7497 92.6466C50.0736 92.3235 57.7893 84.8179 68.3288 88.0161C69.4681 88.3607 70.1106 89.5668 69.7651 90.7029C69.4195 91.8389 68.2154 92.485 67.0708 92.1351C58.9826 89.6799 52.8597 95.6348 52.8003 95.694C52.3791 96.114 51.8284 96.324 51.2777 96.324L51.2723 96.3294Z" fill="#321705"/>
<path d="M138.569 91.5427C138.051 91.5427 137.532 91.3597 137.122 90.9881C131.917 86.2931 125.13 89.4913 124.839 89.6259C123.769 90.1428 122.474 89.7013 121.955 88.6352C121.432 87.5691 121.869 86.2877 122.933 85.76C123.321 85.5662 132.614 81.1081 140.021 87.7899C140.907 88.5868 140.972 89.949 140.173 90.832C139.746 91.3004 139.158 91.5427 138.569 91.5427Z" fill="#321705"/>
<path d="M89.7589 134.331C89.1542 134.331 88.5549 134.078 88.1283 133.588C87.3454 132.689 87.4426 131.327 88.3443 130.552C88.7762 130.18 92.6854 126.923 96.7187 127.402C98.576 127.623 100.169 128.597 101.335 130.218C102.032 131.187 101.805 132.533 100.833 133.222C99.8665 133.911 98.5167 133.691 97.8201 132.721C97.2262 131.892 96.6485 131.725 96.2111 131.677C94.5049 131.472 92.0806 133.023 91.1735 133.804C90.7632 134.159 90.2611 134.331 89.7589 134.331Z" fill="#321705"/>
<path d="M42.2986 156.348C50.2068 156.348 56.6176 149.955 56.6176 142.069C56.6176 134.182 50.2068 127.79 42.2986 127.79C34.3904 127.79 27.9795 134.182 27.9795 142.069C27.9795 149.955 34.3904 156.348 42.2986 156.348Z" fill="#ED8D56"/>
<path d="M152.883 158.06C160.791 158.06 167.202 151.667 167.202 143.781C167.202 135.895 160.791 129.502 152.883 129.502C144.974 129.502 138.563 135.895 138.563 143.781C138.563 151.667 144.974 158.06 152.883 158.06Z" fill="#ED8D56"/>
<path d="M67.0815 136.318C75.5771 136.318 82.4642 128.026 82.4642 117.796C82.4642 107.567 75.5771 99.2747 67.0815 99.2747C58.5858 99.2747 51.6987 107.567 51.6987 117.796C51.6987 128.026 58.5858 136.318 67.0815 136.318Z" fill="white"/>
<path d="M123.888 136.318C132.384 136.318 139.271 128.026 139.271 117.796C139.271 107.567 132.384 99.2747 123.888 99.2747C115.392 99.2747 108.505 107.567 108.505 117.796C108.505 128.026 115.392 136.318 123.888 136.318Z" fill="white"/>
<path d="M125.967 126.971C130.523 126.971 134.217 123.288 134.217 118.744C134.217 114.2 130.523 110.517 125.967 110.517C121.411 110.517 117.717 114.2 117.717 118.744C117.717 123.288 121.411 126.971 125.967 126.971Z" fill="#030305"/>
<path d="M69.8567 126.971C74.4131 126.971 78.1069 123.288 78.1069 118.744C78.1069 114.2 74.4131 110.517 69.8567 110.517C65.3002 110.517 61.6064 114.2 61.6064 118.744C61.6064 123.288 65.3002 126.971 69.8567 126.971Z" fill="#030305"/>
<path d="M96.9077 156.52C91.0332 156.52 85.5583 153.812 80.6179 148.47C79.808 147.598 79.8674 146.231 80.7421 145.428C81.6168 144.621 82.9882 144.68 83.7927 145.552C87.9178 150.016 92.3669 152.256 97.0481 152.213C105.385 152.132 111.945 144.858 112.01 144.788C112.798 143.899 114.164 143.813 115.055 144.599C115.946 145.385 116.032 146.742 115.249 147.636C114.936 147.991 107.393 156.407 97.1237 156.52C97.0535 156.52 96.9779 156.52 96.9077 156.52Z" fill="#321705"/>
</g>
<defs>
<clipPath id="clip0_0_1862">
<rect width="212" height="187" fill="white"/>
</clipPath>
</defs>
</svg>
