<svg width="209" height="396" viewBox="0 0 209 396" fill="none" xmlns="http://www.w3.org/2000/svg">
<g clip-path="url(#clip0_0_1567)">
<path d="M144.089 119.608C163.128 93.3168 163.956 63.1377 163.956 63.1377C157.416 60.9739 159.478 50.7221 165.662 50.2427C167.425 50.1064 168.35 51.7424 168.835 53.2993C168.672 50.8584 169.39 47.7754 174.401 48.8177C180.615 50.1064 175.027 57.495 175.027 57.495C178.57 54.6539 183.683 56.3647 183.066 61.0926C182.158 68.0722 173.815 66.7177 173.815 66.7177C166.896 114.392 143.542 135.318 136.552 140.609" fill="#FF6034"/>
<path d="M58.5957 146.872C51.0988 143.02 24.8157 126.708 10.0103 81.35C10.0103 81.35 1.39983 83.7067 0.124041 77.45C-0.757177 73.1367 3.11843 70.5909 7.02034 72.7497C7.02034 72.7497 -0.608116 67.9 6.42409 64.066C13.202 60.3726 13.6141 70.204 13.6141 70.204C13.6141 70.204 13.636 64.9805 16.4112 64.4045C24.1887 62.7909 25.4689 74.8558 18.9321 76.2101C18.9321 76.2101 26.1134 111.728 55.312 134.358" fill="#FF6034"/>
<path d="M52.3079 145.728C52.9727 181.068 65.1014 201.124 82.9249 208.201C82.973 208.223 83.0167 208.245 83.0648 208.263L81.5515 271.468C81.1841 277.011 81.031 282.567 81.0835 288.123L81.4684 326.548L91.3621 328.656L96.322 211.08C96.3789 211.08 96.4401 211.08 96.497 211.089C96.9825 211.115 97.468 211.133 97.9578 211.146C99.0688 211.172 100.197 211.168 101.343 211.137L98.1547 329.055L107.681 339.773L116.424 209.1C137.9 203.683 158.015 186.673 150.711 147.656L146.718 130.72C145.462 125.05 144.443 119.327 143.612 113.578C141.561 99.3321 134.195 75.6872 120.754 70.4727C102.384 63.352 92.8623 67.6814 90.2555 67.8041C89.3851 67.8479 88.5147 67.861 87.6399 67.8566C80.0556 67.8435 47.4354 70.9722 52.9771 126.443C52.719 129.55 52.5353 132.56 52.4216 135.487" fill="#FF6034"/>
<path d="M69.3665 119.689C71.3844 119.797 73.1159 118.368 73.2331 116.492C73.3502 114.62 71.8097 113.014 69.7874 112.905C67.7651 112.796 66.038 114.226 65.9208 116.102C65.8036 117.978 67.3442 119.58 69.3665 119.689Z" fill="white"/>
<path d="M79.5818 120.22C81.4556 120.328 83.0634 118.899 83.1722 117.023C83.281 115.147 81.8505 113.545 79.9727 113.436C78.0949 113.327 76.4911 114.757 76.3823 116.633C76.2735 118.509 77.704 120.111 79.5818 120.22Z" fill="white"/>
<path d="M69.3307 117.612C70.342 117.612 71.1619 116.91 71.1619 116.044C71.1619 115.178 70.342 114.476 69.3307 114.476C68.3194 114.476 67.4995 115.178 67.4995 116.044C67.4995 116.91 68.3194 117.612 69.3307 117.612Z" fill="#1F2421"/>
<path d="M79.531 118.666C80.3979 118.666 81.1006 117.964 81.1006 117.097C81.1006 116.231 80.3979 115.529 79.531 115.529C78.6642 115.529 77.9614 116.231 77.9614 117.097C77.9614 117.964 78.6642 118.666 79.531 118.666Z" fill="#1F2421"/>
<path d="M77.428 124.559L76.2662 123.48L74.8212 121.785L72.6369 122.594L71.1497 125.216L74.5043 127.012L77.428 124.559Z" fill="#040000"/>
<path d="M66.9851 135.531C69.5816 138.647 76.644 142.386 84.1218 132.415" stroke="white" stroke-width="1.55788" stroke-linecap="round" stroke-linejoin="round"/>
<path d="M91.7936 326.126V343.739C91.7936 343.739 93.1716 351.532 89.8988 358.449C86.096 366.491 34.8359 374.014 33.0118 364.788C31.5587 357.447 61.1682 353.34 73.3186 351.967C76.6443 351.593 79.3606 349.184 80.0893 345.96C80.5884 343.747 81.1184 340.772 81.5601 336.878C81.9929 333.079 81.5954 329.333 81.6838 325.512C81.6926 325.216 81.697 324.911 81.697 324.602" fill="#231815"/>
<path d="M108.357 326.969C108.458 334.756 110.204 374.755 106.215 386.216C102.713 396.269 44.7986 401.609 51.2492 385.172C53.8953 378.433 78.425 384.287 87.7367 380.998C94.297 378.683 98.8036 368.406 98.2946 362.316C98.2946 362.316 97.4608 344.796 97.8514 324.602" fill="#231815"/>
</g>
<defs>
<clipPath id="clip0_0_1567">
<rect width="208.756" height="395.701" fill="white"/>
</clipPath>
</defs>
</svg>
